<?xml version="1.0" encoding="UTF-8" standalone="no"?>
<svg
   width="241"
   height="141"
   viewBox="0 0 241 141"
   fill="none"
   version="1.1"
   id="svg27"
   sodipodi:docname="C_06.svg"
   inkscape:version="1.2.2 (b0a84865, 2022-12-01)"
   xmlns:inkscape="http://www.inkscape.org/namespaces/inkscape"
   xmlns:sodipodi="http://sodipodi.sourceforge.net/DTD/sodipodi-0.dtd"
   xmlns="http://www.w3.org/2000/svg"
   xmlns:svg="http://www.w3.org/2000/svg">
  <defs
     id="defs31" />
  <sodipodi:namedview
     id="namedview29"
     pagecolor="#ffffff"
     bordercolor="#000000"
     borderopacity="0.25"
     inkscape:showpageshadow="2"
     inkscape:pageopacity="0.0"
     inkscape:pagecheckerboard="0"
     inkscape:deskcolor="#d1d1d1"
     showgrid="false"
     inkscape:zoom="1.6737589"
     inkscape:cx="120.68644"
     inkscape:cy="71.993644"
     inkscape:window-width="1223"
     inkscape:window-height="745"
     inkscape:window-x="217"
     inkscape:window-y="25"
     inkscape:window-maximized="0"
     inkscape:current-layer="svg27" />
  <mask
     id="mask0_1190_10314"
     style="mask-type:luminance"
     maskUnits="userSpaceOnUse"
     x="0"
     y="0"
     width="241"
     height="141">
    <path
       d="M220.758 0.174805H20.672C9.69473 0.174805 0.795898 9.07363 0.795898 20.0509V120.698C0.795898 131.676 9.69473 140.575 20.672 140.575H220.758C231.735 140.575 240.634 131.676 240.634 120.698V20.0509C240.634 9.07363 231.735 0.174805 220.758 0.174805Z"
       fill="white"
       id="path2" />
  </mask>
  <g
     mask="url(#mask0_1190_10314)"
     id="g7">
    <path
       d="M220.758 0.174805H20.672C9.69473 0.174805 0.795898 9.07363 0.795898 20.0509V120.698C0.795898 131.676 9.69473 140.575 20.672 140.575H220.758C231.735 140.575 240.634 131.676 240.634 120.698V20.0509C240.634 9.07363 231.735 0.174805 220.758 0.174805Z"
       fill="#F4C1FA"
       id="path5"
       style="fill:#ebc1c8;fill-opacity:1" />
  </g>
  <path
     d="M197.485 23.8115H159.721C148.172 23.8115 138.81 33.1738 138.81 44.7228C138.81 56.2718 148.172 65.6341 159.721 65.6341H197.485C209.034 65.6341 218.397 56.2718 218.397 44.7228C218.397 33.1738 209.034 23.8115 197.485 23.8115Z"
     fill="#FF715D"
     stroke="#F4C1FA"
     stroke-width="0.828171"
     stroke-linejoin="round"
     id="path9"
     style="fill:#d06e7c;fill-opacity:1" />
  <path
     d="M197.212 62.7023C207.142 62.7023 215.192 54.6526 215.192 44.7228C215.192 34.7929 207.142 26.7432 197.212 26.7432C187.282 26.7432 179.232 34.7929 179.232 44.7228C179.232 54.6526 187.282 62.7023 197.212 62.7023Z"
     fill="#FCF3F1"
     id="path11" />
  <path
     d="M197.485 73.6006H159.721C148.172 73.6006 138.81 82.9629 138.81 94.5119C138.81 106.061 148.172 115.423 159.721 115.423H197.485C209.034 115.423 218.397 106.061 218.397 94.5119C218.397 82.9629 209.034 73.6006 197.485 73.6006Z"
     fill="black"
     stroke="#F4C1FA"
     stroke-width="0.828171"
     stroke-linejoin="round"
     id="path13" />
  <path
     d="M160.615 112.491C170.545 112.491 178.595 104.442 178.595 94.5118C178.595 84.5819 170.545 76.5322 160.615 76.5322C150.685 76.5322 142.636 84.5819 142.636 94.5118C142.636 104.442 150.685 112.491 160.615 112.491Z"
     fill="#FCF3F1"
     id="path15" />
  <path
     d="M106.992 23.9766H30.1711C25.771 23.9766 22.2041 27.5435 22.2041 31.9436V108.765C22.2041 113.165 25.771 116.732 30.1711 116.732H106.992C111.392 116.732 114.959 113.165 114.959 108.765V31.9436C114.959 27.5435 111.392 23.9766 106.992 23.9766Z"
     fill="white"
     stroke="#F4C1FA"
     stroke-width="0.828171"
     stroke-linejoin="round"
     id="path17" />
  <path
     d="M42.3693 102.43H29.0523C27.5429 102.43 26.3193 103.653 26.3193 105.163V109.767C26.3193 111.277 27.5429 112.5 29.0523 112.5H42.3693C43.8787 112.5 45.1022 111.277 45.1022 109.767V105.163C45.1022 103.653 43.8787 102.43 42.3693 102.43Z"
     fill="black"
     id="path19" />
  <path
     d="M64.341 93.709H51.024C49.5146 93.709 48.291 94.9326 48.291 96.4419V109.759C48.291 111.268 49.5146 112.492 51.024 112.492H64.341C65.8503 112.492 67.0739 111.268 67.0739 109.759V96.4419C67.0739 94.9326 65.8503 93.709 64.341 93.709Z"
     fill="#F4C1FA"
     id="path21" />
  <path
     d="M86.3039 86.0557H72.9869C71.4775 86.0557 70.2539 87.2792 70.2539 88.7886V109.758C70.2539 111.267 71.4775 112.491 72.9869 112.491H86.3039C87.8132 112.491 89.0369 111.267 89.0369 109.758V88.7886C89.0369 87.2792 87.8132 86.0557 86.3039 86.0557Z"
     fill="#713C9A"
     id="path23"
     style="fill:#9a3c85;fill-opacity:1" />
  <path
     d="M108.276 28.1094H94.9586C93.4492 28.1094 92.2256 29.333 92.2256 30.8423V109.759C92.2256 111.268 93.4492 112.492 94.9586 112.492H108.276C109.785 112.492 111.009 111.268 111.009 109.759V30.8423C111.009 29.333 109.785 28.1094 108.276 28.1094Z"
     fill="#FF715D"
     id="path25"
     style="fill:#d06e7c;fill-opacity:1" />
</svg>
