<?xml version="1.0" encoding="UTF-8" standalone="no"?>
<svg
   width="619"
   height="602"
   viewBox="0 0 619 602"
   fill="none"
   version="1.1"
   id="svg237"
   sodipodi:docname="Layer 1-5-2.svg"
   inkscape:version="1.2.2 (b0a84865, 2022-12-01)"
   xmlns:inkscape="http://www.inkscape.org/namespaces/inkscape"
   xmlns:sodipodi="http://sodipodi.sourceforge.net/DTD/sodipodi-0.dtd"
   xmlns="http://www.w3.org/2000/svg"
   xmlns:svg="http://www.w3.org/2000/svg">
  <sodipodi:namedview
     id="namedview239"
     pagecolor="#ffffff"
     bordercolor="#000000"
     borderopacity="0.25"
     inkscape:showpageshadow="2"
     inkscape:pageopacity="0.0"
     inkscape:pagecheckerboard="0"
     inkscape:deskcolor="#d1d1d1"
     showgrid="false"
     inkscape:zoom="1.053139"
     inkscape:cx="282.48883"
     inkscape:cy="308.60124"
     inkscape:window-width="1440"
     inkscape:window-height="900"
     inkscape:window-x="0"
     inkscape:window-y="0"
     inkscape:window-maximized="0"
     inkscape:current-layer="g197" />
  <g
     clip-path="url(#clip0_776_1982)"
     id="g197">
    <path
       d="M61.7656 85.9189H549.473V487.326C549.473 495.077 543.183 501.369 535.433 501.369H75.8059C68.0562 501.369 61.7656 495.077 61.7656 487.326V85.9189Z"
       fill="url(#paint0_linear_776_1982)"
       stroke="#6A3F94"
       stroke-miterlimit="10"
       id="path2" />
    <mask
       id="mask0_776_1982"
       style="mask-type:luminance"
       maskUnits="userSpaceOnUse"
       x="61"
       y="405"
       width="489"
       height="97">
      <path
         d="M61.7656 405.504H549.473V487.326C549.473 495.077 543.183 501.37 535.433 501.37H75.8059C68.0562 501.37 61.7656 495.077 61.7656 487.326V405.504Z"
         fill="white"
         id="path4" />
    </mask>
    <g
       mask="url(#mask0_776_1982)"
       id="g19">
      <path
         d="M400.18 436.719H108.166V454.847H400.18V436.719Z"
         fill="#6A3F94"
         stroke="#6A3F94"
         stroke-linejoin="round"
         id="path7" />
      <path
         d="M400.18 436.719H108.166L128.141 431.592H380.217L400.18 436.719Z"
         fill="#E4CAEA"
         stroke="#6A3F94"
         stroke-linejoin="round"
         id="path9" />
      <path
         d="M422.24 459.974H86.1182V478.102H422.24V459.974Z"
         fill="#6A3F94"
         stroke="#6A3F94"
         stroke-linejoin="round"
         id="path11" />
      <path
         d="M422.24 459.974H86.1182L108.166 454.859H400.18L422.24 459.974Z"
         fill="#E4CAEA"
         stroke="#6A3F94"
         stroke-linejoin="round"
         id="path13" />
      <path
         d="M446.581 483.242H61.7656V501.37H446.581V483.242Z"
         fill="#6A3F94"
         stroke="#6A3F94"
         stroke-linejoin="round"
         id="path15" />
      <path
         d="M446.581 483.242H61.7656L86.1185 478.115H422.24L446.581 483.242Z"
         fill="#E4CAEA"
         stroke="#6A3F94"
         stroke-linejoin="round"
         id="path17" />
    </g>
    <path
       d="M576.659 209.393L549.522 258.994V202.451C559.357 202.451 568.603 204.966 576.659 209.393Z"
       fill="#56456B"
       stroke="#6A3F94"
       stroke-miterlimit="10"
       id="path21" />
    <path
       d="M606.04 260.074C605.476 290.798 580.375 315.537 549.523 315.537C518.671 315.537 492.981 290.222 492.981 258.994C492.981 227.767 518.303 202.451 549.523 202.451V258.994L606.04 260.074Z"
       fill="black"
       stroke="#6A3F94"
       stroke-miterlimit="10"
       id="path23" />
    <path
       d="M618.363 260.074L561.846 259.007L588.982 209.406C606.505 218.997 618.375 237.616 618.375 259.007C618.375 259.362 618.375 259.718 618.363 260.074Z"
       fill="#FF715D"
       stroke="#6A3F94"
       stroke-linejoin="round"
       id="path25"
       style="fill:#ff6f97;fill-opacity:1" />
    <path
       d="M578.069 209.394L549.522 259.007H561.846L588.995 209.394H578.069Z"
       fill="#E4CAEA"
       stroke="#6A3F94"
       stroke-miterlimit="10"
       id="path27" />
    <path
       d="M331.781 418.48C331.634 418.517 331.499 418.431 331.462 418.284L319.187 374.178C311.989 348.335 325.601 321.891 349.512 315.231C354.429 313.857 359.42 313.428 364.3 313.845C383.086 315.427 400.217 329.496 405.931 350.015L418.205 394.122"
       stroke="#EDC4F7"
       stroke-linejoin="round"
       id="path29" />
    <path
       d="M473.925 356.32L298.133 405.295L279.531 400.83L455.029 351.929L473.925 356.32Z"
       fill="#3A2A4C"
       stroke="#6A3F94"
       stroke-miterlimit="10"
       id="path31" />
    <path
       d="M297.103 382.629L287.821 393.14C285.344 390.319 283.149 387.584 281.26 384.983C280.807 384.358 280.365 383.732 279.948 383.119L289.255 372.534C291.389 375.686 294.038 379.096 297.091 382.629H297.103Z"
       fill="#E4CAEA"
       stroke="#6A3F94"
       stroke-miterlimit="10"
       id="path33" />
    <path
       d="M289.268 372.534L279.96 383.119C277.815 380.004 276.147 377.134 275.068 374.644C273.376 370.768 273.081 367.825 274.504 366.34L284.154 356.246C281.873 358.638 284.019 364.795 289.268 372.534Z"
       fill="black"
       stroke="#6A3F94"
       stroke-linejoin="round"
       id="path35" />
    <path
       d="M344.338 413.831L334.687 423.926C330.592 428.218 313.805 418.799 297.177 402.891C293.768 399.628 290.629 396.341 287.833 393.152L297.116 382.641C300.009 385.965 303.283 389.399 306.84 392.809C323.467 408.717 340.254 418.136 344.35 413.844L344.338 413.831Z"
       fill="black"
       stroke="#6A3F94"
       stroke-linejoin="round"
       id="path37" />
    <path
       d="M344.338 413.832C340.242 418.124 323.455 408.705 306.827 392.797C303.271 389.387 299.997 385.965 297.103 382.629C294.038 379.096 291.401 375.686 289.268 372.534C284.02 364.783 281.874 358.625 284.154 356.246C287.478 352.763 299.213 358.343 312.419 369.088C315.46 371.565 318.562 374.3 321.665 377.281C322.18 377.772 322.683 378.25 323.185 378.753C338.906 394.183 348.311 409.686 344.338 413.832Z"
       fill="url(#paint1_linear_776_1982)"
       stroke="#6A3F94"
       stroke-miterlimit="10"
       id="path39" />
    <path
       d="M298.133 405.295L356.317 599.344L332.32 600.89C321.051 601.614 311.069 593.666 309.242 582.529L279.519 400.843L298.133 405.307V405.295Z"
       fill="#E4CAEA"
       stroke="#6A3F94"
       stroke-miterlimit="10"
       id="path41" />
    <path
       d="M473.925 356.32L298.133 405.295L327.599 574.63C330.628 591.998 347.979 602.975 364.962 598.241L518.498 555.472C534.378 551.044 542.962 533.885 536.99 518.516L473.925 356.332V356.32Z"
       fill="white"
       stroke="#6A3F94"
       stroke-miterlimit="10"
       id="path43" />
    <path
       d="M353.424 424.821C352.921 425.14 352.369 425.385 351.769 425.557C348.458 426.477 345.024 424.539 344.092 421.227C343.16 417.916 345.11 414.481 348.421 413.549C349.022 413.378 349.623 413.304 350.223 413.316C347.955 414.751 346.79 417.536 347.55 420.258C348.311 422.981 350.751 424.76 353.424 424.821Z"
       fill="#E4CAEA"
       stroke="#6A3F94"
       stroke-miterlimit="10"
       id="path45" />
    <path
       d="M356.084 417.891C356.845 420.602 355.68 423.398 353.411 424.833C350.738 424.784 348.298 422.994 347.538 420.271C346.777 417.548 347.942 414.764 350.211 413.329C352.896 413.39 355.324 415.181 356.084 417.891Z"
       fill="black"
       stroke="#6A3F94"
       stroke-linejoin="round"
       id="path47" />
    <path
       d="M440.155 400.659C439.652 400.977 439.1 401.223 438.5 401.394C435.189 402.314 431.755 400.376 430.823 397.065C429.904 393.753 431.841 390.319 435.152 389.387C435.753 389.215 436.354 389.141 436.954 389.154C434.686 390.589 433.521 393.373 434.281 396.096C435.042 398.819 437.482 400.597 440.155 400.659Z"
       fill="#E4CAEA"
       stroke="#6A3F94"
       stroke-miterlimit="10"
       id="path49" />
    <path
       d="M442.829 393.717C443.589 396.427 442.424 399.224 440.155 400.659C437.482 400.61 435.042 398.819 434.282 396.096C433.521 393.373 434.686 390.589 436.955 389.154C439.64 389.215 442.068 391.006 442.829 393.717Z"
       fill="black"
       stroke="#6A3F94"
       stroke-linejoin="round"
       id="path51" />
    <path
       d="M412.834 339.099L420.326 350.96C416.929 352.542 413.68 353.891 410.651 354.97C409.915 355.24 409.204 355.486 408.493 355.706L400.939 343.797C404.557 342.632 408.579 341.049 412.822 339.099H412.834Z"
       fill="#E4CAEA"
       stroke="#6A3F94"
       stroke-miterlimit="10"
       id="path53" />
    <path
       d="M400.952 343.797L408.505 355.707C404.913 356.896 401.7 357.681 399.002 358.025C394.809 358.564 391.902 358.025 390.872 356.246L383.883 344.153C385.538 347.01 392.05 346.679 400.952 343.809V343.797Z"
       fill="black"
       stroke="#6A3F94"
       stroke-linejoin="round"
       id="path55" />
    <path
       d="M456.01 302.475L462.999 314.569C465.967 319.696 452.233 333.187 432.307 344.705C428.211 347.059 424.189 349.157 420.339 350.96L412.847 339.099C416.844 337.247 421.062 335.076 425.33 332.611C445.256 321.106 458.99 307.614 456.022 302.475H456.01Z"
       fill="black"
       stroke="#6A3F94"
       stroke-linejoin="round"
       id="path57" />
    <path
       d="M456.01 302.475C458.977 307.602 445.243 321.094 425.317 332.611C421.05 335.076 416.844 337.259 412.834 339.099C408.591 341.049 404.569 342.632 400.952 343.797C392.05 346.667 385.538 346.998 383.883 344.14C381.467 339.97 390.112 330.268 404.128 320.591C407.353 318.371 410.86 316.151 414.575 314.004C415.189 313.649 415.802 313.293 416.415 312.962C435.618 302.193 453.14 297.495 456.01 302.475Z"
       fill="url(#paint2_linear_776_1982)"
       stroke="#6A3F94"
       stroke-miterlimit="10"
       id="path59" />
    <path
       d="M348.74 413.758C348.593 413.795 348.458 413.709 348.421 413.562L336.146 369.456C328.948 343.613 342.559 317.169 366.471 310.509C371.388 309.135 376.379 308.706 381.259 309.123C400.045 310.705 417.175 324.773 422.89 345.293L435.164 389.399"
       stroke="#EDC4F7"
       stroke-linejoin="round"
       id="path61" />
    <path
       d="M77.7802 312.962L50.2023 388.173L18.5166 402.867L46.0822 327.656L77.7802 312.962Z"
       fill="#402F54"
       stroke="#6A3F94"
       stroke-linejoin="round"
       id="path63" />
    <path
       d="M125.395 415.745L93.6967 430.439L18.5166 402.866L50.2023 388.172L125.395 415.745Z"
       fill="#402F54"
       stroke="#6A3F94"
       stroke-linejoin="round"
       id="path65" />
    <path
       d="M61.925 320.309L34.3594 395.519L109.552 423.092"
       stroke="#6A3F94"
       stroke-miterlimit="10"
       id="path67" />
    <path
       d="M106.119 323.351C106.119 323.351 94.4942 284.69 78.3938 296.158C65.4203 305.406 86.4746 327.496 104.562 327.582"
       stroke="#6A3F94"
       stroke-miterlimit="10"
       id="path69" />
    <path
       d="M103.777 322.492C103.777 322.492 89.1973 306.559 93.1948 296.6C94.9974 292.111 99.9636 289.609 104.648 290.847C107.48 291.596 110.607 293.767 112.606 299.163"
       stroke="#6A3F94"
       stroke-miterlimit="10"
       id="path71" />
    <path
       d="M107.896 324.013C107.896 324.013 143.408 302.634 148.264 321.805C152.188 337.247 121.851 340.485 107.995 328.858"
       stroke="#6A3F94"
       stroke-miterlimit="10"
       id="path73" />
    <path
       d="M110.704 325.031C110.704 325.031 133.316 322.749 136.7 312.557C138.233 307.957 136.05 302.843 131.685 300.758C129.036 299.494 125.247 299.126 120.244 301.96"
       stroke="#6A3F94"
       stroke-miterlimit="10"
       id="path75" />
    <path
       d="M77.7786 312.971L50.2041 388.178L125.392 415.759L152.967 340.552L77.7786 312.971Z"
       fill="#E4CAEA"
       stroke="#6A3F94"
       stroke-miterlimit="10"
       id="path77" />
    <path
       d="M115.376 326.748L87.798 401.959L56.4434 416.493"
       stroke="#6A3F94"
       stroke-miterlimit="10"
       id="path79" />
    <path
       d="M74.592 56.7764H536.659C543.735 56.7764 549.473 62.5165 549.473 69.5936V85.9187H61.7656V69.5936C61.7656 62.5165 67.5044 56.7764 74.5797 56.7764H74.592Z"
       fill="black"
       stroke="#6A3F94"
       stroke-miterlimit="10"
       id="path81" />
    <path
       d="M81.0786 76.0082C83.6521 76.0082 85.7383 73.9214 85.7383 71.3473C85.7383 68.7732 83.6521 66.6865 81.0786 66.6865C78.5052 66.6865 76.4189 68.7732 76.4189 71.3473C76.4189 73.9214 78.5052 76.0082 81.0786 76.0082Z"
       fill="#6A3F94"
       stroke="#6A3F94"
       stroke-miterlimit="10"
       id="path83" />
    <path
       d="M97.2651 76.0082C99.8386 76.0082 101.925 73.9214 101.925 71.3473C101.925 68.7732 99.8386 66.6865 97.2651 66.6865C94.6917 66.6865 92.6055 68.7732 92.6055 71.3473C92.6055 73.9214 94.6917 76.0082 97.2651 76.0082Z"
       fill="#FF715D"
       id="path85" />
    <path
       d="M113.451 76.0082C116.024 76.0082 118.11 73.9214 118.11 71.3473C118.11 68.7732 116.024 66.6865 113.451 66.6865C110.877 66.6865 108.791 68.7732 108.791 71.3473C108.791 73.9214 110.877 76.0082 113.451 76.0082Z"
       fill="white"
       id="path87" />
    <path
       d="M203.886 403.75L214.333 412.568C211.905 415.389 209.526 417.928 207.258 420.124C206.706 420.651 206.166 421.166 205.627 421.657L195.118 412.814C197.877 410.311 200.845 407.257 203.886 403.762V403.75Z"
       fill="#6A3F94"
       stroke="#6A3F94"
       stroke-miterlimit="10"
       id="path89" />
    <path
       d="M195.118 412.801L205.627 421.645C202.905 424.159 200.366 426.134 198.135 427.471C194.664 429.568 191.967 430.12 190.483 428.759L180.403 419.51C182.794 421.694 188.337 418.934 195.118 412.789V412.801Z"
       fill="black"
       stroke="#6A3F94"
       stroke-linejoin="round"
       id="path91" />
    <path
       d="M229.256 351.695L239.336 360.943C243.616 364.856 236.148 383.229 222.659 401.971C219.888 405.81 217.08 409.379 214.333 412.58L203.886 403.762C206.755 400.45 209.686 396.746 212.58 392.723C226.08 373.981 233.548 355.62 229.256 351.695Z"
       fill="black"
       stroke="#6A3F94"
       stroke-linejoin="round"
       id="path93" />
    <path
       d="M229.256 351.695C233.536 355.62 226.068 373.981 212.58 392.723C209.686 396.734 206.755 400.45 203.886 403.762C200.845 407.257 197.877 410.311 195.118 412.813C188.337 418.958 182.782 421.73 180.404 419.535C176.921 416.346 181.213 403.602 190.189 388.884C192.249 385.499 194.566 382.015 197.08 378.52C197.497 377.943 197.902 377.367 198.331 376.802C211.452 359.055 225.112 347.893 229.256 351.695Z"
       fill="url(#paint3_linear_776_1982)"
       stroke="#6A3F94"
       stroke-miterlimit="10"
       id="path95" />
    <path
       d="M608.553 80.2397L596.094 80.5709L599.847 68.6858C599.933 68.416 599.822 68.1093 599.565 67.9622C599.319 67.815 599.001 67.864 598.804 68.0725L590.233 77.1121L584.482 66.061C584.347 65.8035 584.053 65.6808 583.783 65.7421C583.513 65.8035 583.317 66.0733 583.317 66.3554L583.648 78.8169L571.766 75.0638C571.496 74.9779 571.19 75.0883 571.043 75.3459C570.896 75.5912 570.945 75.9101 571.153 76.1063L580.19 84.6798L569.142 90.4322C568.885 90.5671 568.762 90.8615 568.823 91.1313C568.884 91.4012 569.154 91.5974 569.436 91.5974L581.895 91.2662L578.143 103.151C578.057 103.421 578.167 103.728 578.425 103.875C578.67 104.022 578.989 103.973 579.185 103.765L587.756 94.725L593.507 105.776C593.642 106.034 593.936 106.156 594.206 106.095C594.476 106.034 594.672 105.764 594.672 105.482L594.341 93.0202L606.223 96.7734C606.493 96.8592 606.799 96.7488 606.947 96.4913C607.094 96.246 607.045 95.927 606.836 95.7308L597.799 87.1574L608.847 81.4049C609.105 81.27 609.227 80.9756 609.166 80.7058C609.105 80.436 608.835 80.2397 608.553 80.2397Z"
       fill="#FCF3F1"
       id="path97" />
    <path
       d="M26.6464 262.048L18.2958 262.269L20.8095 254.296C20.8709 254.112 20.785 253.916 20.6256 253.818C20.4539 253.72 20.2455 253.745 20.1106 253.892L14.3596 259.951L10.5092 252.543C10.4234 252.371 10.2272 252.285 10.031 252.334C9.8348 252.383 9.71218 252.555 9.72444 252.751L9.94516 261.104L1.97468 258.589C1.79074 258.528 1.59455 258.614 1.49645 258.773C1.39835 258.945 1.42287 259.154 1.57002 259.288L7.62759 265.041L0.22117 268.892C0.0494978 268.978 -0.0363382 269.174 0.0127109 269.371C0.0617601 269.567 0.233432 269.689 0.429629 269.677L8.78024 269.456L6.26647 277.429C6.20516 277.613 6.291 277.809 6.45041 277.907C6.62208 278.005 6.83054 277.981 6.96542 277.834L12.7164 271.775L16.5668 279.183C16.6526 279.354 16.8488 279.44 17.045 279.391C17.2412 279.342 17.3638 279.171 17.3516 278.974L17.1309 270.622L25.1013 273.136C25.2853 273.197 25.4815 273.111 25.5796 272.952C25.6777 272.78 25.6531 272.572 25.506 272.437L19.4484 266.684L26.8548 262.833C27.0265 262.747 27.1124 262.551 27.0633 262.355C27.0143 262.159 26.8426 262.036 26.6464 262.048Z"
       fill="#FCF3F1"
       id="path99" />
    <path
       d="M99.791 131.595C91.1339 132.085 90.7415 132.478 90.251 141.137C89.7605 132.478 89.3681 132.085 80.7109 131.595C89.3681 131.104 89.7605 130.712 90.251 122.052C90.7415 130.712 91.1339 131.104 99.791 131.595Z"
       fill="white"
       id="path101" />
    <path
       d="M110.937 241.357C111.01 241.357 124.781 242.167 147.552 242.167C185.123 242.167 247.195 239.983 312.7 228.356C345.453 222.542 379.076 214.361 410.946 202.868C442.815 191.376 472.944 176.584 498.67 157.45C500.84 155.831 501.294 152.765 499.675 150.581C498.057 148.411 494.991 147.957 492.809 149.576C468.088 167.961 438.806 182.385 407.61 193.633C360.817 210.51 309.733 220.212 263.394 225.67C217.054 231.128 175.449 232.354 147.552 232.354C136.283 232.354 127.258 232.158 121.053 231.962C117.951 231.864 115.56 231.766 113.941 231.692C113.132 231.655 112.518 231.618 112.114 231.606C111.905 231.606 111.758 231.582 111.66 231.582H111.513C108.803 231.41 106.485 233.483 106.326 236.181C106.167 238.892 108.227 241.21 110.937 241.369V241.357Z"
       fill="#56456B"
       id="path103" />
    <path
       d="M111.391 223.45C111.661 223.437 182.966 220.984 267.171 194.393C309.28 181.085 354.625 161.743 395.913 133.52C437.2 105.31 474.452 68.1953 500.081 19.4529C501.344 17.0489 500.424 14.093 498.021 12.8297C495.617 11.5664 492.662 12.4863 491.399 14.8903C466.641 61.9522 430.639 97.9018 390.382 125.413C330.015 166.686 260.096 188.825 205.295 200.55C177.901 206.413 154.284 209.7 137.559 211.503C129.196 212.411 122.537 212.938 118 213.257C115.732 213.416 113.978 213.515 112.813 213.564C112.225 213.588 111.783 213.613 111.489 213.625C111.342 213.625 111.231 213.625 111.158 213.637H111.06C108.35 213.735 106.228 216.004 106.327 218.715C106.425 221.426 108.693 223.548 111.403 223.45H111.391Z"
       fill="url(#paint4_linear_776_1982)"
       id="path105" />
    <path
       d="M495.74 33.8036C504.923 33.8036 512.368 26.3573 512.368 17.1718C512.368 7.98633 504.923 0.540039 495.74 0.540039C486.557 0.540039 479.112 7.98633 479.112 17.1718C479.112 26.3573 486.557 33.8036 495.74 33.8036Z"
       fill="white"
       id="path107" />
    <path
       d="M495.74 170.145C504.923 170.145 512.368 162.699 512.368 153.513C512.368 144.328 504.923 136.881 495.74 136.881C486.557 136.881 479.112 144.328 479.112 153.513C479.112 162.699 486.557 170.145 495.74 170.145Z"
       fill="white"
       id="path109" />
    <path
       d="M496.757 153.415L499.786 157.671H497.567L495.703 154.923L493.839 157.671H491.681L494.685 153.452L491.767 149.355H493.986L495.752 151.943L497.579 149.355H499.614L496.757 153.415Z"
       fill="black"
       id="path111" />
    <path
       d="M489.891 13.2593V21.0845H488.235V14.866H486.433V13.2593H489.891Z"
       fill="#FF715D"
       id="path113" />
    <path
       d="M491.056 18.0672V16.2642C491.056 15.3197 491.35 14.5593 491.951 13.9583C492.552 13.3696 493.3 13.0752 494.219 13.0752C495.139 13.0752 495.887 13.3696 496.5 13.9583C497.113 14.547 497.408 15.3075 497.408 16.2519V18.0672C497.408 18.9993 497.101 19.7721 496.488 20.3608C495.875 20.9618 495.114 21.2562 494.195 21.2562C493.275 21.2562 492.539 20.9618 491.951 20.3608C491.362 19.7598 491.056 18.9993 491.056 18.0672ZM492.711 16.2764V18.0794C492.711 18.5578 492.846 18.9257 493.128 19.1956C493.41 19.4654 493.766 19.6003 494.195 19.6003C494.624 19.6003 495.016 19.4654 495.298 19.1833C495.58 18.9012 495.728 18.5333 495.728 18.0672V16.2519C495.728 15.7858 495.58 15.4179 495.298 15.1358C495.016 14.8537 494.649 14.7187 494.207 14.7187C493.766 14.7187 493.398 14.8537 493.116 15.1358C492.834 15.4179 492.699 15.7858 492.699 16.2642L492.711 16.2764Z"
       fill="#FF715D"
       id="path115" />
    <path
       d="M502.19 17.0738L505.034 21.0845H502.95L501.196 18.5088L499.443 21.0845H497.407L500.228 17.1106L497.481 13.2593H499.565L501.221 15.7001L502.937 13.2593H504.85L502.165 17.0738H502.19Z"
       fill="#FF715D"
       id="path117" />
    <text
       xml:space="preserve"
       style="fill:#ffffff"
       x="113.34956"
       y="177.38211"
       id="text1200"><tspan
         sodipodi:role="line"
         x="113.34956"
         y="177.38211"
         id="tspan1202"
         style="font-style:normal;font-variant:normal;font-weight:bold;font-stretch:normal;font-family:sans-serif;-inkscape-font-specification:'sans-serif Bold'">Growth With</tspan><tspan
         sodipodi:role="line"
         x="113.34956"
         y="192.38211"
         id="tspan1206"
         style="font-style:normal;font-variant:normal;font-weight:bold;font-stretch:normal;font-family:sans-serif;-inkscape-font-specification:'sans-serif Bold'">DravyBrands</tspan></text>
    <text
       xml:space="preserve"
       id="text1258"
       style="fill:#ffffff;white-space:pre;shape-inside:url(#rect1260)" />
    <text
       xml:space="preserve"
       id="text1264"
       style="font-style:normal;font-variant:normal;font-weight:bold;font-stretch:normal;font-family:sans-serif;-inkscape-font-specification:'sans-serif Bold';white-space:pre;shape-inside:url(#rect1266);fill:#ffffff" />
    <text
       xml:space="preserve"
       id="text1996"
       style="font-style:normal;font-variant:normal;font-weight:bold;font-stretch:normal;font-size:10.6667px;font-family:sans-serif;-inkscape-font-specification:'sans-serif Bold';white-space:pre;shape-inside:url(#rect1998);fill:#ffffff"
       transform="translate(-9.4352857,-2.6957959)"><tspan
         x="120.63672"
         y="260.21593"
         id="tspan2098">Regular Growth</tspan></text>
  </g>
  <defs
     id="defs235">
    <rect
       x="120.63687"
       y="250.48437"
       width="108.95508"
       height="15.276177"
       id="rect1998" />
    <rect
       x="123.10801"
       y="251.38297"
       width="69.641395"
       height="16.624075"
       id="rect1266" />
    <rect
       x="205.62006"
       y="151.13274"
       width="0.79543545"
       height="15.908709"
       id="rect1260" />
    <linearGradient
       id="paint0_linear_776_1982"
       x1="305.626"
       y1="82.4356"
       x2="305.626"
       y2="642.482"
       gradientUnits="userSpaceOnUse">
      <stop
         id="stop199"
         offset="0"
         style="stop-color:#000000;stop-opacity:1;" />
      <stop
         offset="1"
         stop-color="#69458C"
         id="stop201"
         style="stop-color:#ff0094;stop-opacity:1;" />
    </linearGradient>
    <linearGradient
       id="paint1_linear_776_1982"
       x1="283.247"
       y1="385.033"
       x2="345.245"
       y2="385.033"
       gradientUnits="userSpaceOnUse">
      <stop
         stop-color="#F6D0C1"
         id="stop204" />
      <stop
         offset="0.47"
         stop-color="#EE8C6A"
         id="stop206" />
      <stop
         offset="1"
         stop-color="#C7A2F8"
         id="stop208" />
    </linearGradient>
    <linearGradient
       id="paint2_linear_776_1982"
       x1="383.478"
       y1="323.314"
       x2="456.414"
       y2="323.314"
       gradientUnits="userSpaceOnUse">
      <stop
         stop-color="#F6D0C1"
         id="stop211" />
      <stop
         offset="0.47"
         stop-color="#EE8C6A"
         id="stop213" />
      <stop
         offset="1"
         stop-color="#C7A2F8"
         id="stop215" />
    </linearGradient>
    <linearGradient
       id="paint3_linear_776_1982"
       x1="179.19"
       y1="385.609"
       x2="230.458"
       y2="385.609"
       gradientUnits="userSpaceOnUse">
      <stop
         stop-color="#F6D0C1"
         id="stop218" />
      <stop
         offset="0.47"
         stop-color="#EE8C6A"
         id="stop220" />
      <stop
         offset="1"
         stop-color="#C7A2F8"
         id="stop222" />
    </linearGradient>
    <linearGradient
       id="paint4_linear_776_1982"
       x1="106.314"
       y1="117.857"
       x2="500.645"
       y2="117.857"
       gradientUnits="userSpaceOnUse">
      <stop
         stop-color="#F6D0C1"
         id="stop225" />
      <stop
         offset="0.47"
         stop-color="#EE8C6A"
         id="stop227" />
      <stop
         offset="1"
         stop-color="#C7A2F8"
         id="stop229" />
    </linearGradient>
    <clipPath
       id="clip0_776_1982">
      <rect
         width="619"
         height="601"
         fill="white"
         transform="translate(0 0.540039)"
         id="rect232" />
    </clipPath>
  </defs>
</svg>
