<?xml version="1.0" encoding="UTF-8" standalone="no"?><!DOCTYPE svg PUBLIC "-//W3C//DTD SVG 1.1//EN" "http://www.w3.org/Graphics/SVG/1.1/DTD/svg11.dtd"><svg width="100%" height="100%" viewBox="0 0 4500 4500" version="1.1" xmlns="http://www.w3.org/2000/svg" xmlns:xlink="http://www.w3.org/1999/xlink" xml:space="preserve" xmlns:serif="http://www.serif.com/" style="fill-rule:evenodd;clip-rule:evenodd;stroke-linejoin:round;stroke-miterlimit:2;"><g><clipPath id="_clip1"><rect x="2190.73" y="0" width="2237.13" height="4502.78"/></clipPath><g clip-path="url(#_clip1)"><rect x="2190.73" y="0" width="2239.02" height="4500" style="fill:#bc9aff;fill-rule:nonzero;"/></g></g><g><g><g><path d="M1056.73,968.634l-975.136,-0c132.927,155.149 136.653,384.146 136.653,417.412l0,1739.7c0,33.265 -3.726,262.263 -136.653,417.412l823.713,-0c-0,-0 1237.33,-3.727 1237.33,-1422.09c0,-1152.44 -1085.91,-1152.44 -1085.91,-1152.44Zm-240.109,2327.03l-103.387,0l-0,-2075.88l169.851,-0c-0,-0 749.864,-0 749.864,986.246c0,1034.21 -672.29,1089.63 -816.328,1089.63Z" style="fill-rule:nonzero;"/></g></g></g><g><g><g><path d="M3906.28,3306.78c-661.179,-0 -893.902,-443.293 -1026.9,-938.212c-66.463,-240.108 -99.729,-469.105 -99.729,-650.068c-7.385,-284.417 73.916,-424.796 236.45,-424.796c520.8,-0 753.455,162.534 893.835,421.07l395.257,-487.601c-199.458,-214.228 -483.875,-306.572 -794.173,-306.572c-620.529,-0 -1119.17,354.607 -1119.17,1340.85c0,982.521 498.645,1329.74 1119.17,1329.74c317.683,-0 605.759,-92.344 808.943,-310.298c-136.653,7.385 -277.033,25.881 -413.686,25.881Z" style="fill-rule:nonzero;"/></g></g></g></svg>