<?xml version="1.0" encoding="UTF-8" standalone="no"?>
<svg
   width="199.87674"
   zoomAndPan="magnify"
   viewBox="0 0 149.90755 38.926144"
   height="51.901527"
   preserveAspectRatio="xMidYMid"
   version="1.0"
   id="svg124"
   sodipodi:docname="logo.svg"
   inkscape:version="1.2.2 (b0a84865, 2022-12-01)"
   xmlns:inkscape="http://www.inkscape.org/namespaces/inkscape"
   xmlns:sodipodi="http://sodipodi.sourceforge.net/DTD/sodipodi-0.dtd"
   xmlns="http://www.w3.org/2000/svg"
   xmlns:svg="http://www.w3.org/2000/svg">
  <sodipodi:namedview
     id="namedview126"
     pagecolor="#ffffff"
     bordercolor="#000000"
     borderopacity="0.25"
     inkscape:showpageshadow="2"
     inkscape:pageopacity="0.0"
     inkscape:pagecheckerboard="0"
     inkscape:deskcolor="#d1d1d1"
     showgrid="false"
     inkscape:zoom="4.3204577"
     inkscape:cx="95.244539"
     inkscape:cy="16.433444"
     inkscape:window-width="1440"
     inkscape:window-height="772"
     inkscape:window-x="0"
     inkscape:window-y="25"
     inkscape:window-maximized="0"
     inkscape:current-layer="svg124" />
  <defs
     id="defs16">
    <g
       id="g2" />
    <clipPath
       id="7fea1dd3b3">
      <path
         d="m 176.82422,111.45703 h 77.07812 v 33.38281 h -77.07812 z m 0,0"
         clip-rule="nonzero"
         id="path4" />
    </clipPath>
    <clipPath
       id="2445803795">
      <path
         d="m 113.55078,111.45703 h 65.37891 v 33.38281 h -65.37891 z m 0,0"
         clip-rule="nonzero"
         id="path7" />
    </clipPath>
    <clipPath
       id="f9f0d971a8">
      <path
         d="m 112.5,111.45703 h 150 V 151 h -150 z m 0,0"
         clip-rule="nonzero"
         id="path10" />
    </clipPath>
    <clipPath
       id="dbc8ca0486">
      <path
         d="m 243.30469,114.28125 h 7.5 v 7.5 h -7.5 z m 0,0"
         clip-rule="nonzero"
         id="path13" />
    </clipPath>
  </defs>
  <g
     clip-path="url(#7fea1dd3b3)"
     id="g20"
     transform="matrix(1,0,0,0.9841254,-112.6051,-109.17147)">
    <path
       fill="#fccbcc"
       d="m 176.82422,111.45703 h 77.34375 v 33.39844 h -77.34375 z m 0,0"
       fill-opacity="1"
       fill-rule="nonzero"
       id="path18" />
  </g>
  <g
     clip-path="url(#2445803795)"
     id="g24"
     transform="matrix(1.0040925,0,0,0.98539479,-113.33599,-109.35533)">
    <path
       fill="#fdbebf"
       d="m 113.55078,111.45703 h 65.03906 v 33.39844 h -65.03906 z m 0,0"
       fill-opacity="1"
       fill-rule="nonzero"
       id="path22" />
  </g>
  <g
     clip-path="url(#f9f0d971a8)"
     id="g28"
     transform="translate(-112.6051,-111.80952)"
     style="fill:#ffe3e3;fill-opacity:1">
    <path
       fill="#000000"
       d="m 112.96484,111.81641 h 140.33594 c 0.043,0 0.0703,0.0352 0.10938,0.0469 0.0234,0.008 0.043,-0.0117 0.0625,0 l 8.84375,4.86328 c 0.11328,0.0586 0.18359,0.17969 0.18359,0.3125 v 33.32813 c 0,0.0117 -0.0156,0.0195 -0.0156,0.0273 0,0.0234 0.0117,0.043 0.004,0.0625 -0.0234,0.0859 -0.082,0.15234 -0.15625,0.20313 -0.004,0 -0.004,0.008 -0.008,0.0117 -0.0586,0.0352 -0.11719,0.0508 -0.17969,0.0508 H 121.80859 c -0.0586,0 -0.11718,-0.0117 -0.16796,-0.043 l -8.84766,-4.84375 c -0.0156,-0.008 -0.0195,-0.0312 -0.0352,-0.0391 -0.0273,-0.0234 -0.0469,-0.043 -0.0664,-0.0742 -0.0312,-0.043 -0.0508,-0.0898 -0.0625,-0.14454 0,-0.0195 -0.0195,-0.0352 -0.0195,-0.0547 V 112.1757 c 0,-0.19922 0.15625,-0.35937 0.35546,-0.35937 z m 0.35547,33.35156 h 139.625 v -32.63672 h -139.625 z m 0,0"
       fill-opacity="1"
       fill-rule="nonzero"
       id="path26"
       style="fill:#ffe3e3;fill-opacity:1" />
  </g>
  <path
     fill="#000000"
     d="m 134.5199,6.3076674 h -0.78125 V 4.874067 h 0.78125 c 0.58203,0 0.88672,0.26172 0.88672,0.71485 0,0.44922 -0.30469,0.7187504 -0.88672,0.7187504 z m 1.55859,-0.7187504 c 0,-0.79688 -0.58593,-1.27735 -1.52734,-1.27735 h -1.48047 v 3.5898509 h 0.66797 v -1.04688 h 0.8125 c 0.043,0 0.0898,0 0.13672,-0.004 l 0.73437,1.05078 h 0.71875 l -0.82812,-1.17969 c 0.48828,-0.19141 0.76562,-0.5898409 0.76562,-1.1328109"
     fill-opacity="1"
     fill-rule="nonzero"
     id="path30" />
  <g
     clip-path="url(#dbc8ca0486)"
     id="g34"
     transform="translate(-112.6051,-111.80952)">
    <path
       fill="#000000"
       d="m 247.05469,121.12891 c -1.70703,0 -3.09766,-1.39063 -3.09766,-3.09766 0,-1.71094 1.39063,-3.10156 3.09766,-3.10156 1.71093,0 3.10156,1.39062 3.10156,3.10156 0,1.70703 -1.39063,3.09766 -3.10156,3.09766 z m 0,-6.84766 c -2.06641,0 -3.75,1.68359 -3.75,3.75 0,2.06641 1.68359,3.75 3.75,3.75 2.07031,0 3.75,-1.68359 3.75,-3.75 0,-2.06641 -1.67969,-3.75 -3.75,-3.75"
       fill-opacity="1"
       fill-rule="nonzero"
       id="path32" />
  </g>
  <g
     fill="#000000"
     fill-opacity="1"
     id="g42"
     transform="translate(-112.6051,-111.80952)">
    <g
       transform="translate(118.23776,134.27973)"
       id="g40">
      <g
         id="g38">
        <path
           d="M 6.515625,-16.324219 H 0.351562 c 0.839844,0.980469 0.863282,2.429688 0.863282,2.636719 v 11 c 0,0.210938 -0.023438,1.660156 -0.863282,2.640625 h 5.207032 c 0,0 7.824218,-0.0234375 7.824218,-8.992187 0,-7.285157 -6.867187,-7.285157 -6.867187,-7.285157 z M 4.996094,-1.613281 H 4.34375 v -13.125 h 1.074219 c 0,0 4.742187,0 4.742187,6.238281 0,6.539062 -4.25,6.886719 -5.164062,6.886719 z m 0,0"
           id="path36" />
      </g>
    </g>
  </g>
  <g
     fill="#000000"
     fill-opacity="1"
     id="g50"
     transform="translate(-112.6051,-111.80952)">
    <g
       transform="translate(131.99316,134.27973)"
       id="g48">
      <g
         id="g46">
        <path
           d="m 7.613281,-12.074219 c -1.820312,0 -3.246093,1.496094 -3.738281,2.054688 v -2.101563 l -3.570312,1.636719 c 0.816406,0.675781 0.863281,2.078125 0.863281,2.078125 v 5.71875 c 0,0.304688 -0.046875,1.683594 -0.863281,2.6875 H 4.789062 C 3.921875,-1.378906 3.898438,-2.640625 3.898438,-2.753906 L 3.875,-9.25 c 0.5625,-0.230469 1.054688,-0.347656 1.449219,-0.347656 1.449219,0 2.007812,1.238281 2.007812,1.238281 l 2.289063,-2.851563 c 0,0 -0.488282,-0.863281 -2.007813,-0.863281 z m 0,0"
           id="path44" />
      </g>
    </g>
  </g>
  <g
     fill="#000000"
     fill-opacity="1"
     id="g58"
     transform="translate(-112.6051,-111.80952)">
    <g
       transform="translate(141.52152,134.27973)"
       id="g56">
      <g
         id="g54">
        <path
           d="m 9.949219,-3.058594 c 0,-1.871094 0,-3.410156 0,-5.277344 0,-0.445312 -0.046875,-2.171874 -3.269531,-3.433593 -1.726563,-0.679688 -3.667969,-0.492188 -5,0.816406 l 1.144531,2.847656 c 0.65625,-1.351562 2.011719,-2.496093 3.410156,-2.496093 0.726563,0 0.890625,1.890624 0.84375,2.402343 -1.542969,0.75 -4.160156,2.058594 -6.191406,3.085938 C 0.375,-4.835938 0.164062,-4.367188 0.164062,-3.875 c 0,1.65625 2.242188,4.039062 3.667969,4.039062 1.28125,0 2.917969,-1.636718 3.382813,-2.101562 v 0.394531 c 0,1.332031 1.03125,1.5664065 1.03125,1.5664065 L 10.789062,-1.050781 C 9.972656,-1.703125 9.949219,-2.847656 9.949219,-3.058594 Z m -4.765625,0.675782 c -0.347656,0 -0.675782,-0.023438 -0.980469,-0.09375 -0.558594,-0.117188 -1.003906,-0.816407 -1.003906,-1.539063 0,-0.539063 0.257812,-1.097656 0.886719,-1.496094 C 5.980469,-6.679688 6.75,-7.148438 7.101562,-7.355469 L 7.214844,-2.6875 C 6.773438,-2.5 5.957031,-2.382812 5.183594,-2.382812 Z m 0,0"
           id="path52" />
      </g>
    </g>
  </g>
  <g
     fill="#000000"
     fill-opacity="1"
     id="g66"
     transform="translate(-112.6051,-111.80952)">
    <g
       transform="translate(152.56788,134.27973)"
       id="g64">
      <g
         id="g62">
        <path
           d="M 7.707031,-11.628906 C 8.289062,-11 8.5,-10.742188 8.734375,-10.464844 c 0.140625,0.1875 0.210937,0.421875 0.210937,0.679688 0,0.234375 -0.070312,0.511718 -0.140624,0.769531 L 7.03125,-2.777344 4.671875,-9.34375 C 4.554688,-9.714844 4.4375,-10.042969 4.4375,-10.230469 c 0,-0.253906 0.1875,-0.558593 0.816406,-1.398437 H -0.1875 c 0.816406,0.769531 1.308594,1.421875 1.960938,2.964844 L 5.324219,0.0234375 H 7.03125 l 3.363281,-9.0624995 c 0.511719,-1.214844 1.144531,-1.867188 1.960938,-2.589844 z m 0,0"
           id="path60" />
      </g>
    </g>
  </g>
  <g
     fill="#000000"
     fill-opacity="1"
     id="g74"
     transform="translate(-112.6051,-111.80952)">
    <g
       transform="translate(164.73522,134.27973)"
       id="g72">
      <g
         id="g70">
        <path
           d="m 8.035156,-11.605469 c 0.769532,0.933594 1.351563,1.421875 1.003906,2.613281 l -2.21875,6.074219 c 0,0 -1.730468,-5.441406 -2.03125,-6.402343 -0.304687,-0.957032 -0.234374,-1.585938 0.511719,-2.285157 h -5.464843 c 0.746093,0.769531 1.355468,1.773438 1.800781,2.964844 0.417969,1.167969 3.128906,8.6171875 3.128906,8.6171875 0,0.6757815 -0.632813,3.2695315 -2.148437,3.2695315 -1.144532,0 -1.753907,-1.820313 -1.753907,-1.820313 l -2.453125,2.359375 c 0,0 0.679688,0.816406 2.734375,0.816406 2.03125,0 4.507813,-1.9375 5.605469,-4.5781245 1.074219,-2.6171875 3.734375,-9.0390625 3.734375,-9.0390625 0.492187,-1.214844 1.054687,-1.867187 1.777344,-2.589844 z m 0,0"
           id="path68" />
      </g>
    </g>
  </g>
  <g
     fill="#000000"
     fill-opacity="1"
     id="g82"
     transform="translate(-112.6051,-111.80952)">
    <g
       transform="translate(180.0709,133.85646)"
       id="g80">
      <g
         id="g78">
        <path
           d="m 9.242188,-8.726562 c 0.75,-0.46875 2.199218,-1.242188 2.199218,-4.050782 0,-3.554687 -4.351562,-3.578125 -4.351562,-3.578125 H 0.351562 c 0.84375,0.980469 0.867188,2.433594 0.867188,2.644531 v 11.019532 c 0,0.210937 -0.023438,1.660156 -0.867188,2.644531 h 4.820313 c 3.042969,0 7.488281,-0.585937 7.488281,-4.515625 0,-3.441406 -3.417968,-4.164062 -3.417968,-4.164062 z m -4.890626,-6.0625 c 0.328126,0 4.144532,-0.257813 4.144532,2.175781 0,4.140625 -4.144532,3.605469 -4.144532,3.605469 z m 5.125,10.320312 c 0,2.410156 -2.082031,2.738281 -3.695312,2.738281 -0.5625,0 -1.078125,-0.046875 -1.40625,-0.046875 -0.023438,0 -0.023438,0 -0.023438,0 v -6.273437 c 2.292969,0 5.101563,0.023437 5.125,3.582031 z m 0,0"
           id="path76" />
      </g>
    </g>
  </g>
  <g
     fill="#000000"
     fill-opacity="1"
     id="g90"
     transform="translate(-112.6051,-111.80952)">
    <g
       transform="translate(193.02932,133.85646)"
       id="g88">
      <g
         id="g86">
        <path
           d="m 7.628906,-12.097656 c -1.824218,0 -3.253906,1.496094 -3.746094,2.058594 v -2.105469 l -3.578124,1.636719 c 0.820312,0.679687 0.867187,2.082031 0.867187,2.082031 v 5.734375 C 1.171875,-2.386719 1.125,-1.007812 0.304688,0 H 4.796875 C 3.929688,-1.378906 3.90625,-2.644531 3.90625,-2.761719 L 3.882812,-9.265625 C 4.445312,-9.5 4.9375,-9.617188 5.335938,-9.617188 c 1.449218,0 2.011718,1.238282 2.011718,1.238282 l 2.292969,-2.851563 c 0,0 -0.492187,-0.867187 -2.011719,-0.867187 z m 0,0"
           id="path84" />
      </g>
    </g>
  </g>
  <g
     fill="#000000"
     fill-opacity="1"
     id="g98"
     transform="translate(-112.6051,-111.80952)">
    <g
       transform="translate(202.57271,133.85646)"
       id="g96">
      <g
         id="g94">
        <path
           d="m 9.96875,-3.066406 c 0,-1.871094 0,-3.414063 0,-5.289063 0,-0.441406 -0.046875,-2.175781 -3.277344,-3.4375 -1.730468,-0.679687 -3.671875,-0.492187 -5.007812,0.820313 l 1.148437,2.851562 C 3.488281,-9.476562 4.84375,-10.625 6.246094,-10.625 c 0.726562,0 0.890625,1.898438 0.84375,2.410156 -1.542969,0.75 -4.164063,2.0625 -6.199219,3.089844 -0.515625,0.28125 -0.726563,0.75 -0.726563,1.242188 0,1.660156 2.246094,4.046874 3.671876,4.046874 1.289062,0 2.925781,-1.636718 3.394531,-2.105468 v 0.398437 c 0,1.332031 1.03125,1.5664065 1.03125,1.5664065 L 10.8125,-1.054688 C 9.992188,-1.707031 9.96875,-2.855469 9.96875,-3.066406 Z m -4.773438,0.679687 c -0.351562,0 -0.679687,-0.023437 -0.984374,-0.09375 -0.558594,-0.117187 -1.003907,-0.820312 -1.003907,-1.542969 0,-0.539062 0.257813,-1.101562 0.886719,-1.5 1.898438,-1.167968 2.667969,-1.636718 3.019531,-1.847656 l 0.117188,4.679688 c -0.445313,0.1875 -1.261719,0.304687 -2.035157,0.304687 z m 0,0"
           id="path92" />
      </g>
    </g>
  </g>
  <g
     fill="#000000"
     fill-opacity="1"
     id="g106"
     transform="translate(-112.6051,-111.80952)">
    <g
       transform="translate(213.63649,133.85646)"
       id="g104">
      <g
         id="g102">
        <path
           d="m 11.769531,0 c -0.796875,-1.542969 -0.863281,-2.433594 -0.863281,-2.691406 0,-2.128906 -0.02344,-4.257813 -0.02344,-6.363282 0,-2.128906 -1.125,-3.042968 -2.738281,-3.042968 -1.59375,0 -3.792969,1.777344 -4.285156,2.199218 v -2.199218 c 0,0 -3.53125,1.589844 -3.53125,1.636718 0.867187,0.796876 0.867187,2.082032 0.867187,2.082032 0,1.898437 0,3.792968 0,5.6875 0,0.304687 -0.046874,1.683594 -0.867187,2.691406 H 4.820312 C 3.953125,-1.378906 3.929688,-2.644531 3.929688,-2.761719 L 3.882812,-9.265625 c 0.773438,-0.328125 1.40625,-0.46875 1.945313,-0.46875 2.574219,0 2.574219,1.847656 2.574219,1.847656 0,1.6875 0,3.394531 0,5.101563 0,0.09375 -0.046875,0.726562 -0.867188,2.785156 z m 0,0"
           id="path100" />
      </g>
    </g>
  </g>
  <g
     fill="#000000"
     fill-opacity="1"
     id="g114"
     transform="translate(-112.6051,-111.80952)">
    <g
       transform="translate(225.68268,133.85646)"
       id="g112">
      <g
         id="g110">
        <path
           d="M 11.417969,-1.21875 C 10.53125,-2.011719 10.53125,-3.324219 10.53125,-3.324219 v -14.507812 l -3.582031,1.664062 C 7.839844,-15.375 7.839844,-14.0625 7.839844,-14.0625 v 2.832031 c -1.03125,-0.46875 -1.964844,-0.679687 -2.785156,-0.679687 -3.019532,0 -4.585938,2.785156 -4.585938,6.316406 0,2.714844 1.144531,5.945312 3.4375,5.945312 1.40625,0 3.441406,-1.660156 3.980469,-2.105468 v 2.011718 c 0,0 3.53125,-1.453124 3.53125,-1.476562 z M 7.863281,-2.480469 c -0.398437,0.1875 -1.148437,0.375 -1.917969,0.375 -0.726562,0 -1.453124,-0.164062 -1.875,-0.679687 -0.441406,-0.585938 -0.675781,-2.058594 -0.675781,-3.554688 0,-1.664062 0.277344,-3.347656 0.910157,-3.816406 0.890624,-0.679688 2.574218,-0.515625 3.230468,0.5625 0.1875,0.28125 0.328125,0.726562 0.328125,1.03125 z m 0,0"
           id="path108" />
      </g>
    </g>
  </g>
  <g
     fill="#000000"
     fill-opacity="1"
     id="g122"
     transform="translate(-112.6051,-111.80952)">
    <g
       transform="translate(237.4014,133.85646)"
       id="g120">
      <g
         id="g118">
        <path
           d="M 6.015625,-6.832031 C 3.882812,-8.402344 2.363281,-9.382812 2.363281,-9.921875 c 0,-0.257813 0.304688,-0.375 0.984375,-0.375 2.152344,0 4.351563,2.433594 4.351563,2.433594 L 8.75,-10.71875 c 0,0 -0.816406,-1.238281 -3.90625,-1.238281 -2.644531,0 -4.046875,1.753906 -4.046875,2.902343 0,1.144532 0.304687,2.386719 3.484375,4.679688 2.128906,1.449219 3.535156,2.246094 3.535156,2.808594 -0.28125,0.28125 -0.609375,0.417968 -0.9375,0.417968 C 3.835938,-1.171875 2.386719,-3.8125 2.386719,-3.8125 L 0.1875,-1.566406 c 0,0 1.214844,1.917968 4.445312,1.917968 4.609376,0 4.984376,-2.363281 4.984376,-2.972656 0,-1.589844 -0.960938,-2.246094 -3.601563,-4.210937 z m 0,0"
           id="path116" />
      </g>
    </g>
  </g>
</svg>
