<?xml version="1.0" encoding="UTF-8" standalone="no"?>
<svg
   width="1080"
   zoomAndPan="magnify"
   viewBox="0 0 810 809.999993"
   height="1080"
   preserveAspectRatio="xMidYMid meet"
   version="1.0"
   id="svg29"
   sodipodi:docname="Svgdravys-black.svg"
   inkscape:version="1.2.2 (b0a84865, 2022-12-01)"
   xmlns:inkscape="http://www.inkscape.org/namespaces/inkscape"
   xmlns:sodipodi="http://sodipodi.sourceforge.net/DTD/sodipodi-0.dtd"
   xmlns="http://www.w3.org/2000/svg"
   xmlns:svg="http://www.w3.org/2000/svg">
  <sodipodi:namedview
     id="namedview31"
     pagecolor="#ffffff"
     bordercolor="#000000"
     borderopacity="0.25"
     inkscape:showpageshadow="2"
     inkscape:pageopacity="0.0"
     inkscape:pagecheckerboard="0"
     inkscape:deskcolor="#d1d1d1"
     showgrid="false"
     inkscape:zoom="0.21851852"
     inkscape:cx="542.28814"
     inkscape:cy="540"
     inkscape:window-width="1440"
     inkscape:window-height="900"
     inkscape:window-x="0"
     inkscape:window-y="0"
     inkscape:window-maximized="0"
     inkscape:current-layer="svg29" />
  <defs
     id="defs7">
    <g
       id="g2" />
    <clipPath
       id="c92674aa6c">
      <path
         d="M 394.980469 267.839844 L 523.964844 267.839844 L 523.964844 527.453125 L 394.980469 527.453125 Z M 394.980469 267.839844 "
         clip-rule="nonzero"
         id="path4" />
    </clipPath>
  </defs>
  <g
     clip-path="url(#c92674aa6c)"
     id="g11"
     transform="matrix(3.0270868,0,0,3.0270868,-794.63917,-796.90161)">
    <path
       fill="#4de686"
       d="M 394.98047,267.83984 H 524.07422 V 527.29297 H 394.98047 Z m 0,0"
       fill-opacity="1"
       fill-rule="nonzero"
       id="path9" />
  </g>
  <g
     fill="#ffffff"
     fill-opacity="1"
     id="g19"
     transform="matrix(3.0270868,0,0,3.0270868,-794.63917,-796.90161)">
    <g
       transform="translate(270.18031,472.55093)"
       id="g17">
      <g
         id="g15">
        <path
           d="M 59.417969,-148.86328 H 3.195312 c 7.664063,8.94531 7.878907,22.14844 7.878907,24.0664 v 100.304692 c 0,1.917969 -0.214844,15.121094 -7.878907,24.066407 H 50.6875 c 0,0 71.33984,-0.214844 71.33984,-81.992188 0,-66.445311 -62.609371,-66.445311 -62.609371,-66.445311 z M 45.574219,-14.695312 H 39.613281 V -134.38281 h 9.792969 c 0,0 43.234375,0 43.234375,56.863279 0,59.628906 -38.761719,62.824219 -47.066406,62.824219 z m 0,0"
           id="path13" />
      </g>
    </g>
  </g>
  <g
     fill="#ffffff"
     fill-opacity="1"
     id="g27"
     transform="matrix(3.0270868,0,0,3.0270868,-794.63917,-796.90161)">
    <g
       transform="translate(402.52952,472.55093)"
       id="g25">
      <g
         id="g23">
        <path
           d="M 64.742188,-87.527344 C 45.574219,-101.58594 25.980469,-119.47266 25.980469,-126.71484 c 0,-5.10938 4.046875,-6.38672 10.222656,-6.38672 21.9375,0 38.335937,14.90625 52.601563,26.40625 l 11.929692,-32.58594 c -6.39063,-5.75 -19.167974,-12.35156 -42.382818,-12.35156 -34.925781,0 -52.175781,19.59375 -52.175781,38.54687 0,18.316409 15.121094,30.24219 36.417969,46.855471 21.933594,17.675781 43.445312,35.5625 43.445312,45.148438 0,4.257812 -3.621093,6.8125 -12.140624,6.8125 -24.277344,0 -39.398438,-14.269531 -48.554688,-28.960938 L 1.066406,-17.25 c 12.5625,14.054688 28.535156,19.59375 53.664063,19.59375 33.011719,0 55.160161,-21.296875 55.160161,-40.039062 0,-20.230469 -24.066411,-34.285157 -45.148442,-49.832032 z m 0,0"
           id="path21" />
      </g>
    </g>
  </g>
</svg>
