<?xml version="1.0" encoding="UTF-8" standalone="no"?>
<svg
   width="443.10919"
   zoomAndPan="magnify"
   viewBox="0 0 332.33189 298.38596"
   height="397.84796"
   preserveAspectRatio="xMidYMid"
   version="1.0"
   id="svg36"
   sodipodi:docname="Short db logo.svg"
   inkscape:version="1.2.2 (b0a84865, 2022-12-01)"
   xmlns:inkscape="http://www.inkscape.org/namespaces/inkscape"
   xmlns:sodipodi="http://sodipodi.sourceforge.net/DTD/sodipodi-0.dtd"
   xmlns="http://www.w3.org/2000/svg"
   xmlns:svg="http://www.w3.org/2000/svg">
  <sodipodi:namedview
     id="namedview38"
     pagecolor="#ffffff"
     bordercolor="#000000"
     borderopacity="0.25"
     inkscape:showpageshadow="2"
     inkscape:pageopacity="0.0"
     inkscape:pagecheckerboard="0"
     inkscape:deskcolor="#d1d1d1"
     showgrid="false"
     inkscape:zoom="0.6186304"
     inkscape:cx="455.84569"
     inkscape:cy="12.931792"
     inkscape:window-width="1440"
     inkscape:window-height="900"
     inkscape:window-x="0"
     inkscape:window-y="0"
     inkscape:window-maximized="0"
     inkscape:current-layer="svg36" />
  <defs
     id="defs10">
    <g
       id="g2" />
    <clipPath
       id="90ef000a5e">
      <path
         d="m 243,258.39062 h 324 v 293.25 H 243 Z m 0,0"
         clip-rule="nonzero"
         id="path4" />
    </clipPath>
    <clipPath
       id="15a849c3ca">
      <path
         d="M 439.50391,258.39062 H 568.48828 V 517 H 439.50391 Z m 0,0"
         clip-rule="nonzero"
         id="path7" />
    </clipPath>
  </defs>
  <g
     clip-path="url(#90ef000a5e)"
     id="g14"
     transform="translate(-238.83405,-255.80702)">
    <path
       fill="#ffffff"
       d="M 564.48828,258.96875 H 312.13672 c -0.23047,0 -0.38281,0.16797 -0.59375,0.24219 -0.10938,0.0312 -0.21485,-0.0586 -0.32031,0 l -67.23438,36.8164 C 243.37891,296.34766 243,296.98828 243,297.6875 v 252.23047 c 0,0.0625 0.0742,0.0937 0.0898,0.15234 0,0.10938 -0.0586,0.21485 -0.0273,0.32031 0.12109,0.47266 0.44141,0.82032 0.83594,1.08204 0.0312,0.0156 0.0156,0.0586 0.043,0.0742 0.30468,0.1836 0.625,0.27344 0.96093,0.27344 h 252.35547 c 0.31641,0 0.6211,-0.0742 0.91016,-0.24219 l 67.23437,-36.66406 c 0.0899,-0.0469 0.1211,-0.15234 0.19922,-0.21094 0.15235,-0.125 0.24219,-0.23046 0.36328,-0.39843 0.16797,-0.22657 0.25782,-0.46875 0.32032,-0.75782 0.0156,-0.10937 0.12109,-0.18359 0.12109,-0.28906 V 260.87109 c -0.0156,-1.05078 -0.86719,-1.90234 -1.91797,-1.90234 z m -203.72266,256.1875 -60.25,32.86328 H 280.375 l 60.25,-32.86328 z m 7.91016,0 h 20.125 l -60.26953,32.86328 h -20.10938 z m 28.05078,0 h 20.1211 l -60.26563,32.86328 h -20.125 z m 28.03125,0 h 20.125 l -60.25,32.86328 h -20.14062 z m 28.05078,0 h 20.10938 l -60.25,32.86328 h -20.125 z m 28.01953,0 h 20.125 l -60.2539,32.86328 h -20.1211 z m 28.05079,0 h 20.10937 l -60.25391,32.86328 H 448.625 Z m 28.03515,0 h 20.1211 l -60.26563,32.86328 h -20.125 z M 246.80469,298.8125 310.23437,264.08203 v 248.04688 l -63.42968,34.58203 z m 65.8164,216.34375 h 20.09375 l -60.25,32.86328 h -20.10937 z m 0,0"
       fill-opacity="1"
       fill-rule="nonzero"
       id="path12" />
  </g>
  <g
     fill="#000000"
     fill-opacity="1"
     id="g22"
     transform="translate(-238.83405,-255.80702)">
    <g
       transform="translate(313.70717,463.10087)"
       id="g20">
      <g
         id="g18">
        <path
           d="M 59.417969,-148.86328 H 3.195312 c 7.664063,8.94531 7.878907,22.14844 7.878907,24.0664 v 100.304692 c 0,1.917969 -0.214844,15.121094 -7.878907,24.066407 H 50.6875 c 0,0 71.33984,-0.214844 71.33984,-81.992188 0,-66.445311 -62.609371,-66.445311 -62.609371,-66.445311 z M 45.574219,-14.695312 H 39.613281 V -134.38281 h 9.792969 c 0,0 43.234375,0 43.234375,56.863279 0,59.628906 -38.761719,62.824219 -47.066406,62.824219 z m 0,0"
           id="path16" />
      </g>
    </g>
  </g>
  <g
     clip-path="url(#15a849c3ca)"
     id="g26"
     transform="translate(-238.83405,-255.80702)">
    <path
       fill="#ffa1a2"
       d="m 439.50391,258.39062 h 129.09375 v 258.1875 H 439.50391 Z m 0,0"
       fill-opacity="1"
       fill-rule="nonzero"
       id="path24" />
  </g>
  <g
     fill="#000000"
     fill-opacity="1"
     id="g34"
     transform="translate(-238.83405,-255.80702)">
    <g
       transform="translate(446.0564,463.10087)"
       id="g32">
      <g
         id="g30">
        <path
           d="m 84.121094,-79.4375 c 6.816406,-4.257812 20.019536,-11.285156 20.019536,-36.83984 0,-32.3711 -39.613286,-32.58594 -39.613286,-32.58594 H 3.195312 c 7.664063,8.94531 7.878907,22.14844 7.878907,24.0664 v 100.304692 c 0,1.917969 -0.214844,15.121094 -7.878907,24.066407 h 43.871094 c 27.683594,0 68.148434,-5.324219 68.148434,-41.101563 0,-31.308594 -31.093746,-37.910156 -31.093746,-37.910156 z m -44.507813,-55.15625 c 2.980469,0 37.691407,-2.34375 37.691407,19.80469 0,37.69531 -37.691407,32.796872 -37.691407,32.796872 z M 86.25,-40.675781 c 0,21.933593 -18.953125,24.917969 -33.648438,24.917969 -5.109374,0 -9.796874,-0.425782 -12.777343,-0.425782 -0.210938,0 -0.210938,0 -0.210938,0 v -57.078125 c 20.867188,0 46.425781,0.214844 46.636719,32.585938 z m 0,0"
           id="path28" />
      </g>
    </g>
  </g>
</svg>
