<svg xmlns="http://www.w3.org/2000/svg" xmlns:xlink="http://www.w3.org/1999/xlink" width="500" zoomAndPan="magnify" viewBox="0 0 375 374.999991" height="500" preserveAspectRatio="xMidYMid meet" version="1.0"><defs><g/></defs><rect x="-37.5" width="450" fill="#ffffff" y="-37.499999" height="449.999989" fill-opacity="1"/><rect x="-37.5" width="450" fill="#ffffff" y="-37.499999" height="449.999989" fill-opacity="1"/><rect x="-37.5" width="450" fill="#000000" y="-37.499999" height="449.999989" fill-opacity="1"/><g fill="#ffffff" fill-opacity="1"><g transform="translate(88.51658, 199.049559)"><g><path d="M 21.816406 0.925781 C 28.539062 0.925781 34.59375 -1.847656 37.058594 -6.210938 L 37.109375 -6.210938 L 38.035156 0 L 49.070312 0 L 49.070312 -21.558594 L 20.941406 -21.558594 L 20.941406 -14.117188 L 34.800781 -14.117188 C 34.234375 -11.34375 31.003906 -9.496094 26.535156 -9.496094 C 20.324219 -9.496094 16.324219 -12.933594 16.324219 -18.222656 C 16.324219 -23.507812 19.660156 -26.949219 24.6875 -26.949219 C 27.972656 -26.949219 30.589844 -25.355469 31.363281 -22.945312 L 45.167969 -25.152344 C 43.679688 -32.902344 35.621094 -37.984375 24.792969 -37.984375 C 10.675781 -37.984375 1.4375 -30.078125 1.4375 -17.964844 C 1.4375 -6.570312 9.496094 0.925781 21.816406 0.925781 Z M 21.816406 0.925781 "/></g></g></g><g fill="#ffffff" fill-opacity="1"><g transform="translate(139.534946, 199.049559)"><g><path d="M 23.96875 -27.359375 C 19.964844 -27.359375 16.324219 -25.046875 14.628906 -21.199219 L 14.578125 -21.199219 L 12.574219 -26.691406 L 1.796875 -26.691406 L 1.796875 0 L 15.140625 0 L 15.140625 -13.398438 C 15.140625 -16.835938 16.425781 -18.992188 18.476562 -18.992188 C 20.378906 -18.992188 21.609375 -16.835938 21.710938 -13.449219 L 33.464844 -15.910156 C 33.003906 -22.945312 29.308594 -27.359375 23.96875 -27.359375 Z M 23.96875 -27.359375 "/></g></g></g><g fill="#ffffff" fill-opacity="1"><g transform="translate(173.410316, 199.049559)"><g><path d="M 11.753906 0.667969 C 17.554688 0.667969 22.121094 -1.796875 24.074219 -5.492188 L 24.125 -5.492188 L 24.226562 -5.03125 C 24.84375 -1.695312 28.691406 0.667969 33.929688 0.667969 C 37.570312 0.667969 41.164062 -0.152344 43.269531 -1.695312 L 41.421875 -7.75 C 40.652344 -7.289062 39.675781 -6.980469 38.957031 -6.980469 C 37.726562 -6.980469 37.058594 -7.75 37.058594 -8.984375 L 37.058594 -16.476562 C 37.058594 -23.457031 30.589844 -27.613281 19.710938 -27.613281 C 11.292969 -27.613281 4.464844 -24.636719 1.335938 -19.605469 L 8.878906 -15.398438 C 12.011719 -18.117188 16.117188 -19.761719 20.019531 -19.761719 C 22.429688 -19.761719 23.917969 -19.09375 23.917969 -18.015625 C 23.917969 -17.347656 23.199219 -16.835938 22.171875 -16.734375 L 15.65625 -16.066406 C 6.363281 -15.191406 0.769531 -11.703125 0.769531 -6.570312 C 0.769531 -2.105469 5.082031 0.667969 11.753906 0.667969 Z M 17.296875 -7.238281 C 15.398438 -7.238281 14.167969 -7.851562 14.167969 -8.726562 C 14.167969 -9.648438 15.398438 -10.367188 17.914062 -10.574219 L 23.765625 -11.085938 L 23.765625 -10.933594 C 23.765625 -8.726562 21.300781 -7.238281 17.296875 -7.238281 Z M 17.296875 -7.238281 "/></g></g></g><g fill="#ffffff" fill-opacity="1"><g transform="translate(216.832388, 199.049559)"><g><path d="M 5.902344 0 L 19.25 0 L 19.25 -17.964844 L 29.769531 -17.964844 L 29.769531 -26.691406 L 19.25 -26.691406 L 19.25 -27.203125 C 19.25 -29 20.738281 -30.027344 23.199219 -30.027344 C 25.097656 -30.027344 27.5625 -29.460938 29.769531 -28.488281 L 31.617188 -37.109375 C 28.179688 -38.597656 23.917969 -39.421875 20.070312 -39.421875 C 11.191406 -39.421875 5.902344 -35.3125 5.902344 -28.230469 L 5.902344 -26.691406 L 0.511719 -26.691406 L 0.511719 -17.964844 L 5.902344 -17.964844 Z M 5.902344 0 "/></g></g></g><g fill="#ffffff" fill-opacity="1"><g transform="translate(247.936136, 199.049559)"><g><path d="M 14.832031 11.703125 C 28.023438 11.703125 36.75 5.285156 36.75 -4.515625 L 36.75 -26.691406 L 23.40625 -26.691406 L 23.40625 -14.011719 C 23.40625 -10.984375 21.660156 -9.136719 18.941406 -9.136719 C 16.628906 -9.136719 15.191406 -10.882812 15.191406 -13.652344 L 15.191406 -26.691406 L 1.847656 -26.691406 L 1.796875 -11.445312 C 1.796875 -4.875 6.058594 -0.410156 12.882812 -0.410156 C 17.914062 -0.410156 21.917969 -3.027344 23.355469 -7.238281 L 23.40625 -7.238281 L 23.40625 -5.132812 C 23.40625 -0.976562 19.503906 1.796875 13.652344 1.796875 C 10.164062 1.796875 5.644531 0.617188 2.257812 -1.179688 L -1.078125 8.160156 C 2.875 10.265625 9.1875 11.703125 14.832031 11.703125 Z M 14.832031 11.703125 "/></g></g></g></svg>