<?xml version="1.0" encoding="UTF-8" standalone="no"?>
<svg
   width="352.34534"
   zoomAndPan="magnify"
   viewBox="0 0 264.259 74.025741"
   height="98.700989"
   preserveAspectRatio="xMidYMid"
   version="1.0"
   id="svg4868"
   sodipodi:docname="svg_20230503_194512_0000.svg"
   inkscape:version="1.2.2 (b0a84865, 2022-12-01)"
   xmlns:inkscape="http://www.inkscape.org/namespaces/inkscape"
   xmlns:sodipodi="http://sodipodi.sourceforge.net/DTD/sodipodi-0.dtd"
   xmlns="http://www.w3.org/2000/svg"
   xmlns:svg="http://www.w3.org/2000/svg">
  <sodipodi:namedview
     id="namedview4870"
     pagecolor="#ffffff"
     bordercolor="#000000"
     borderopacity="0.25"
     inkscape:showpageshadow="2"
     inkscape:pageopacity="0.0"
     inkscape:pagecheckerboard="0"
     inkscape:deskcolor="#d1d1d1"
     showgrid="false"
     inkscape:zoom="2.0943696"
     inkscape:cx="188.12343"
     inkscape:cy="26.738356"
     inkscape:window-width="1440"
     inkscape:window-height="900"
     inkscape:window-x="0"
     inkscape:window-y="0"
     inkscape:window-maximized="0"
     inkscape:current-layer="svg4868" />
  <defs
     id="defs4774">
    <g
       id="g4763" />
    <clipPath
       id="36deb710c1">
      <path
         d="M 56.488281,151.46484 H 318 V 223 H 56.488281 Z m 0,0"
         clip-rule="nonzero"
         id="path4765" />
    </clipPath>
    <clipPath
       id="13d8d61403">
      <path
         d="M 56.488281,151.46484 H 318.23828 v 72 H 56.488281 Z m 0,0"
         clip-rule="nonzero"
         id="path4768" />
    </clipPath>
    <clipPath
       id="80726be8bd">
      <path
         d="M 63.558594,158.23828 H 187.33203 v 58.52344 H 63.558594 Z m 0,0"
         clip-rule="nonzero"
         id="path4771" />
    </clipPath>
  </defs>
  <g
     clip-path="url(#36deb710c1)"
     id="g4778"
     transform="translate(-55.370493,-150.76124)">
    <path
       fill="#bffdff"
       d="M 56.488281,151.46484 H 317.19531 v 71.10157 H 56.488281 Z m 0,0"
       fill-opacity="1"
       fill-rule="nonzero"
       id="path4776" />
  </g>
  <g
     clip-path="url(#13d8d61403)"
     id="g4782"
     transform="translate(-55.370493,-150.76124)">
    <path
       stroke-linecap="butt"
       transform="matrix(0.750202,0,0,0.749268,56.489269,151.46545)"
       fill="none"
       stroke-linejoin="miter"
       d="M -0.00131637,-8.08127e-4 H 348.90493 V 96.092952 H -0.00131637 V -8.08127e-4"
       stroke="#000000"
       stroke-width="6"
       stroke-opacity="1"
       stroke-miterlimit="4"
       id="path4780" />
  </g>
  <g
     clip-path="url(#80726be8bd)"
     id="g4786"
     transform="translate(-55.370493,-150.76124)">
    <path
       fill="#000000"
       d="M 63.558594,158.23828 H 188.03516 v 59.125 H 63.558594 Z m 0,0"
       fill-opacity="1"
       fill-rule="nonzero"
       id="path4784" />
  </g>
  <g
     fill="#ffffff"
     fill-opacity="1"
     id="g4794"
     transform="translate(-55.370493,-150.76124)">
    <g
       transform="translate(71.165353,196.61826)"
       id="g4792">
      <g
         id="g4790">
        <path
           d="M 2.863281,0 H 5.335938 V -7.050781 H 9.660156 L 14.464844,0 h 2.976562 L 12.5,-7.304688 c 2.863281,-0.699218 4.632812,-2.863281 4.632812,-6.035156 0,-3.90625 -2.695312,-6.320312 -6.769531,-6.320312 h -7.5 z m 2.472657,-9.410156 v -7.890625 h 4.746093 c 2.867188,0 4.523438,1.460937 4.523438,3.960937 0,2.5 -1.65625,3.929688 -4.523438,3.929688 z m 0,0"
           id="path4788" />
      </g>
    </g>
  </g>
  <g
     fill="#ffffff"
     fill-opacity="1"
     id="g4802"
     transform="translate(-55.370493,-150.76124)">
    <g
       transform="translate(92.421327,196.61826)"
       id="g4800">
      <g
         id="g4798">
        <path
           d="m 0.476562,0 h 2.640626 l 1.796874,-4.464844 h 9.578126 L 16.347656,0 h 2.613282 L 10.871094,-19.660156 H 8.566406 Z m 5.394532,-6.769531 3.847656,-9.4375 3.847656,9.4375 z m 0,0"
           id="path4796" />
      </g>
    </g>
  </g>
  <g
     fill="#ffffff"
     fill-opacity="1"
     id="g4810"
     transform="translate(-55.370493,-150.76124)">
    <g
       transform="translate(113.98615,196.61826)"
       id="g4808">
      <g
         id="g4806">
        <path
           d="m 11.628906,0.363281 c 6.039063,0 10.109375,-4.578125 10,-11.035156 H 10.953125 V -8.3125 h 8.007813 c -0.507813,3.707031 -3.316407,6.207031 -7.277344,6.207031 -4.410156,0 -7.527344,-3.175781 -7.527344,-7.726562 0,-4.546875 3.089844,-7.722657 7.5,-7.722657 3.035156,0 5.449219,1.488282 6.683594,4.015626 h 2.699218 c -1.265624,-3.875 -4.972656,-6.488282 -9.46875,-6.488282 -5.757812,0 -9.941406,4.296875 -9.941406,10.195313 0,5.929687 4.214844,10.195312 10,10.195312 z m 0,0"
           id="path4804" />
      </g>
    </g>
  </g>
  <g
     fill="#ffffff"
     fill-opacity="1"
     id="g4818"
     transform="translate(-55.370493,-150.76124)">
    <g
       transform="translate(139.28537,196.61826)"
       id="g4816">
      <g
         id="g4814">
        <path
           d="M 2.863281,0 H 15.109375 V -2.304688 H 5.335938 V -8.875 h 8.765624 v -2.277344 H 5.335938 v -6.207031 h 9.464843 v -2.300781 h -11.9375 z m 0,0"
           id="path4812" />
      </g>
    </g>
  </g>
  <g
     fill="#ffffff"
     fill-opacity="1"
     id="g4826"
     transform="translate(-55.370493,-150.76124)">
    <g
       transform="translate(158.35126,196.61826)"
       id="g4824">
      <g
         id="g4822">
        <path
           d="m 2.863281,0 h 6.796875 c 6.039063,0 10.085938,-4.015625 10.085938,-9.832031 0,-5.8125 -4.046875,-9.828125 -10.085938,-9.828125 H 2.863281 Z m 2.472657,-2.359375 v -14.941406 h 4.214843 c 4.578125,0 7.667969,3.003906 7.667969,7.46875 0,4.46875 -3.0625,7.472656 -7.558594,7.472656 z m 0,0"
           id="path4820" />
      </g>
    </g>
  </g>
  <g
     fill="#000000"
     fill-opacity="1"
     id="g4834"
     transform="translate(-55.370493,-150.76124)">
    <g
       transform="translate(204.56844,196.76951)"
       id="g4832">
      <g
         id="g4830">
        <path
           d="m 2.078125,0 h 5.617187 v -9.972656 l 3.792969,5.308594 h 3.679688 l 3.761719,-5.277344 V 0 h 5.617187 V -19.660156 H 19.941406 L 13.3125,-10.308594 6.710938,-19.660156 H 2.078125 Z m 0,0"
           id="path4828" />
      </g>
    </g>
  </g>
  <g
     fill="#000000"
     fill-opacity="1"
     id="g4842"
     transform="translate(-55.370493,-150.76124)">
    <g
       transform="translate(231.19304,196.76951)"
       id="g4840">
      <g
         id="g4838">
        <path
           d="M 2.078125,0 H 15.867188 V -4.632812 H 7.695312 v -3.035157 h 7.105469 V -12.21875 H 7.695312 v -2.863281 h 7.863282 v -4.578125 H 2.078125 Z m 0,0"
           id="path4836" />
      </g>
    </g>
  </g>
  <g
     fill="#000000"
     fill-opacity="1"
     id="g4850"
     transform="translate(-55.370493,-150.76124)">
    <g
       transform="translate(248.3249,196.76951)"
       id="g4848">
      <g
         id="g4846">
        <path
           d="m 2.078125,0 h 8.34375 c 6.347656,0 10.558594,-3.902344 10.558594,-9.832031 0,-5.898438 -4.210938,-9.828125 -10.558594,-9.828125 H 2.078125 Z M 7.75,-5.082031 v -9.496094 h 2.5 c 3.007812,0 4.945312,1.855469 4.945312,4.746094 0,2.894531 -1.9375,4.75 -4.945312,4.75 z m 0,0"
           id="path4844" />
      </g>
    </g>
  </g>
  <g
     fill="#000000"
     fill-opacity="1"
     id="g4858"
     transform="translate(-55.370493,-150.76124)">
    <g
       transform="translate(270.25929,196.76951)"
       id="g4856">
      <g
         id="g4854">
        <path
           d="M 2.078125,0 H 7.75 V -19.660156 H 2.078125 Z m 0,0"
           id="path4852" />
      </g>
    </g>
  </g>
  <g
     fill="#000000"
     fill-opacity="1"
     id="g4866"
     transform="translate(-55.370493,-150.76124)">
    <g
       transform="translate(280.08905,196.76951)"
       id="g4864">
      <g
         id="g4862">
        <path
           d="M 0.140625,0 H 6.152344 L 7.21875,-2.78125 h 6.710938 L 15,0 h 6.035156 L 13.398438,-19.660156 H 7.78125 Z m 8.257813,-6.9375 2.191406,-6.09375 2.191406,6.09375 z m 0,0"
           id="path4860" />
      </g>
    </g>
  </g>
</svg>
